<svg xmlns="http://www.w3.org/2000/svg" viewBox="0 0 600 800" preserveAspectRatio="xMidYMax slice"><style>@keyframes drift{from{transform:translateX(-26px)}to{transform:translateX(26px)}}.drift{animation:drift 26s ease-in-out infinite alternate}.drift.slow{animation-duration:40s}@keyframes fly{from{transform:translate(0,0)}to{transform:translate(-160px,-24px)}}.fly{animation:fly 30s linear infinite alternate}@media (prefers-reduced-motion:reduce){.drift,.fly{animation:none}}</style><rect x="0" y="690" width="600" height="110" fill="#E9C9A0"/><path d="M-300,800 L60,690" stroke="#DDB98C" stroke-width="3"/><path d="M-180,800 L120,690" stroke="#DDB98C" stroke-width="3"/><path d="M-60,800 L180,690" stroke="#DDB98C" stroke-width="3"/><path d="M60,800 L240,690" stroke="#DDB98C" stroke-width="3"/><path d="M180,800 L300,690" stroke="#DDB98C" stroke-width="3"/><path d="M300,800 L360,690" stroke="#DDB98C" stroke-width="3"/><path d="M420,800 L420,690" stroke="#DDB98C" stroke-width="3"/><path d="M540,800 L480,690" stroke="#DDB98C" stroke-width="3"/><path d="M660,800 L540,690" stroke="#DDB98C" stroke-width="3"/><path d="M0,690 h600 v6 h-600 z" fill="#D4AD7E"/><ellipse cx="140" cy="752" rx="80" ry="12" fill="#42344A" opacity=".14"/><rect x="107" y="560" width="6" height="190" fill="#42344A"/><path d="M20,600 Q110,530 200,600 Z" fill="#E8743B"/><path d="M110,548 Q170,560 200,600 L110,600 Z" fill="#000" opacity=".1"/><path d="M80,600 Q110,585 140,600 Z" fill="#FBF4E4"/><ellipse cx="110" cy="724" rx="64" ry="14" fill="#E2C9A6"/><ellipse cx="110" cy="720" rx="64" ry="13" fill="#FBF4E4"/><rect x="106" y="724" width="8" height="60" fill="#5B4B66"/><path d="M84,700 h12 l-2,14 h-8 z M124,700 h12 l-2,14 h-8 z" fill="#D9483B" opacity=".85"/><rect x="89" y="714" width="2" height="8" fill="#42344A"/><rect x="129" y="714" width="2" height="8" fill="#42344A"/><ellipse cx="450" cy="752" rx="80" ry="12" fill="#42344A" opacity=".14"/><rect x="417" y="560" width="6" height="190" fill="#42344A"/><path d="M330,600 Q420,530 510,600 Z" fill="#D9483B"/><path d="M420,548 Q480,560 510,600 L420,600 Z" fill="#000" opacity=".1"/><path d="M390,600 Q420,585 450,600 Z" fill="#FBF4E4"/><ellipse cx="420" cy="724" rx="64" ry="14" fill="#E2C9A6"/><ellipse cx="420" cy="720" rx="64" ry="13" fill="#FBF4E4"/><rect x="416" y="724" width="8" height="60" fill="#5B4B66"/><path d="M394,700 h12 l-2,14 h-8 z M434,700 h12 l-2,14 h-8 z" fill="#D9483B" opacity=".85"/><rect x="399" y="714" width="2" height="8" fill="#42344A"/><rect x="439" y="714" width="2" height="8" fill="#42344A"/><path d="M520,800 l10,-70 h50 l10,70 z" fill="#C9573A"/><path d="M555,730 h25 l10,70 h-25 z" fill="#A8432E"/><circle cx="545" cy="716" r="28" fill="#4F9460"/><circle cx="572" cy="704" r="22" fill="#82B862"/><circle cx="560" cy="694" r="8" fill="#D3E28F" opacity=".7"/></svg>
