<svg xmlns="http://www.w3.org/2000/svg" viewBox="0 0 600 800" preserveAspectRatio="xMidYMax slice"><style>@keyframes drift{from{transform:translateX(-26px)}to{transform:translateX(26px)}}.drift{animation:drift 26s ease-in-out infinite alternate}.drift.slow{animation-duration:40s}@keyframes fly{from{transform:translate(0,0)}to{transform:translate(-160px,-24px)}}.fly{animation:fly 30s linear infinite alternate}@media (prefers-reduced-motion:reduce){.drift,.fly{animation:none}}</style><defs><clipPath id="co4c1"><path d="M330,2000 L330,830 L334.8,826 L340.6,820.9 L347.2,814.8 L354.7,808 L362.8,800.5 L371.5,792.7 L380.6,784.6 L390.2,776.4 L400,768.2 L410,760.4 L420.1,753 L430.2,746.1 L440.2,740.1 L450,735 L460.1,730.7 L470.8,726.8 L482.1,723.3 L493.9,720.1 L505.9,717.4 L518,714.9 L530,712.7 L541.8,710.7 L553.3,709 L564.3,707.4 L574.6,705.9 L584.1,704.5 L592.6,703.3 L600,702 L606.3,700.9 L611.8,700.1 L616.6,699.5 L620.6,699.1 L624,698.9 L626.9,698.9 L629.4,698.9 L631.4,699.1 L633.2,699.3 L634.7,699.5 L636.1,699.7 L637.3,699.9 L638.6,700 L640,700 L640,2000 Z"/></clipPath></defs><g clip-path="url(#co4c1)"><path d="M330,2000 L330,830 L334.8,826 L340.6,820.9 L347.2,814.8 L354.7,808 L362.8,800.5 L371.5,792.7 L380.6,784.6 L390.2,776.4 L400,768.2 L410,760.4 L420.1,753 L430.2,746.1 L440.2,740.1 L450,735 L460.1,730.7 L470.8,726.8 L482.1,723.3 L493.9,720.1 L505.9,717.4 L518,714.9 L530,712.7 L541.8,710.7 L553.3,709 L564.3,707.4 L574.6,705.9 L584.1,704.5 L592.6,703.3 L600,702 L606.3,700.9 L611.8,700.1 L616.6,699.5 L620.6,699.1 L624,698.9 L626.9,698.9 L629.4,698.9 L631.4,699.1 L633.2,699.3 L634.7,699.5 L636.1,699.7 L637.3,699.9 L638.6,700 L640,700 L640,2000 Z" fill="#E4EBA3"/><path d="M330,2000 L330,830 L334.8,826 L340.6,820.9 L347.2,814.8 L354.7,808 L362.8,800.5 L371.5,792.7 L380.6,784.6 L390.2,776.4 L400,768.2 L410,760.4 L420.1,753 L430.2,746.1 L440.2,740.1 L450,735 L460.1,730.7 L470.8,726.8 L482.1,723.3 L493.9,720.1 L505.9,717.4 L518,714.9 L530,712.7 L541.8,710.7 L553.3,709 L564.3,707.4 L574.6,705.9 L584.1,704.5 L592.6,703.3 L600,702 L606.3,700.9 L611.8,700.1 L616.6,699.5 L620.6,699.1 L624,698.9 L626.9,698.9 L629.4,698.9 L631.4,699.1 L633.2,699.3 L634.7,699.5 L636.1,699.7 L637.3,699.9 L638.6,700 L640,700 L640,2000 Z" fill="#D3E28F" transform="translate(2.8,8)"/></g><circle cx="455.9" cy="785.8" r="3.9" fill="#F08A2C"/><circle cx="575.4" cy="773.6" r="4.9" fill="#F08A2C"/><circle cx="575.4" cy="773.6" r="1.7" fill="#EDB84E"/><circle cx="544" cy="737.2" r="2.3" fill="#EDB84E"/><circle cx="453.3" cy="757.2" r="2.6" fill="#FBF4E4"/><circle cx="529.8" cy="766" r="3.6" fill="#EDB84E"/><circle cx="546.6" cy="757.9" r="4.4" fill="#EDB84E"/><circle cx="546.6" cy="757.9" r="1.6" fill="#E8743B"/><circle cx="586.3" cy="778.5" r="4.8" fill="#EDB84E"/><circle cx="586.3" cy="778.5" r="1.7" fill="#E8743B"/><circle cx="446.4" cy="759.2" r="4.5" fill="#FBF4E4"/><circle cx="446.4" cy="759.2" r="1.6" fill="#EDB84E"/><circle cx="542.3" cy="766.6" r="2.9" fill="#FBF4E4"/><circle cx="424.9" cy="784.2" r="4.9" fill="#F08A2C"/><circle cx="424.9" cy="784.2" r="1.7" fill="#EDB84E"/><circle cx="475.2" cy="795" r="4" fill="#FFFFFF"/><circle cx="475.2" cy="795" r="1.4" fill="#EDB84E"/><circle cx="433" cy="782.7" r="5" fill="#F2C3A7"/><circle cx="433" cy="782.7" r="1.8" fill="#EDB84E"/><circle cx="581.5" cy="778.1" r="5.4" fill="#EDB84E"/><circle cx="581.5" cy="778.1" r="1.9" fill="#E8743B"/><circle cx="530" cy="744.6" r="2.5" fill="#FBF4E4"/><circle cx="463" cy="798.2" r="5.4" fill="#F08A2C"/><circle cx="463" cy="798.2" r="1.9" fill="#EDB84E"/><circle cx="594.4" cy="777" r="3.7" fill="#EDB84E"/><circle cx="581.9" cy="793.7" r="5.4" fill="#F08A2C"/><circle cx="581.9" cy="793.7" r="1.9" fill="#EDB84E"/><circle cx="478.4" cy="789" r="6.3" fill="#F2C3A7"/><circle cx="478.4" cy="789" r="2.2" fill="#EDB84E"/><circle cx="464.8" cy="737" r="1.7" fill="#F2C3A7"/><circle cx="563.5" cy="735.5" r="2.8" fill="#FBF4E4"/><circle cx="533.9" cy="783.7" r="3.4" fill="#FBF4E4"/><circle cx="522.6" cy="773.9" r="4.4" fill="#EDB84E"/><circle cx="522.6" cy="773.9" r="1.5" fill="#E8743B"/><circle cx="551" cy="759.2" r="3" fill="#EDB84E"/><circle cx="527.3" cy="747.1" r="2.4" fill="#FBF4E4"/><circle cx="529" cy="797.7" r="3.8" fill="#FBF4E4"/><circle cx="446.9" cy="750.7" r="2.9" fill="#EDB84E"/><circle cx="453.1" cy="743.3" r="2.6" fill="#F2C3A7"/><circle cx="551.2" cy="734.3" r="1.9" fill="#EDB84E"/><circle cx="592.3" cy="752.3" r="3.7" fill="#F08A2C"/><circle cx="586.8" cy="746" r="3" fill="#F08A2C"/><circle cx="571.2" cy="730.1" r="2" fill="#FBF4E4"/><circle cx="436.7" cy="740.6" r="2.5" fill="#FBF4E4"/><circle cx="523.5" cy="760.9" r="2.8" fill="#FFFFFF"/><circle cx="548.4" cy="794.7" r="6.9" fill="#FBF4E4"/><circle cx="548.4" cy="794.7" r="2.4" fill="#EDB84E"/><circle cx="485.8" cy="787" r="3.4" fill="#F2C3A7"/><circle cx="487.4" cy="762.1" r="3.9" fill="#FBF4E4"/><circle cx="464.3" cy="795.9" r="4.9" fill="#FBF4E4"/><circle cx="464.3" cy="795.9" r="1.7" fill="#EDB84E"/><circle cx="441.2" cy="771.8" r="3.4" fill="#FBF4E4"/><circle cx="509.2" cy="797.4" r="7.1" fill="#FBF4E4"/><circle cx="509.2" cy="797.4" r="2.5" fill="#EDB84E"/><circle cx="508.3" cy="795.6" r="5.9" fill="#FBF4E4"/><circle cx="508.3" cy="795.6" r="2.1" fill="#EDB84E"/><circle cx="441" cy="763.5" r="3" fill="#FFFFFF"/><circle cx="585.3" cy="756.7" r="2.5" fill="#F08A2C"/><circle cx="535.6" cy="783.6" r="2.9" fill="#FBF4E4"/><circle cx="473.3" cy="753.6" r="3.8" fill="#EDB84E"/><circle cx="497.8" cy="745.4" r="3.6" fill="#F2C3A7"/><circle cx="539.9" cy="735.1" r="1.6" fill="#FBF4E4"/><circle cx="519.6" cy="760.3" r="2.4" fill="#F08A2C"/><circle cx="574" cy="747.2" r="2.5" fill="#FFFFFF"/><circle cx="565.9" cy="730.4" r="2.2" fill="#F2C3A7"/><circle cx="565.9" cy="731.5" r="1.9" fill="#F08A2C"/><g transform="translate(470,812) scale(1.1)"><path d="M0,0 q-6,-30 4,-54" stroke="#4F9460" stroke-width="3.5" fill="none" stroke-linecap="round"/><path d="M0,-18 q-18,-6 -24,-22 q14,2 24,16" fill="#82B862"/><g transform="translate(4,-60) rotate(-6)"><path d="M-20,0 q-4,-22 14,-24 q-2,14 6,24 z" fill="#F08A2C"/><path d="M20,0 q4,-22 -14,-24 q2,14 -6,24 z" fill="#E8743B"/><path d="M-14,2 q14,-30 28,0 q-14,12 -28,0 z" fill="#D9483B"/><ellipse cx="0" cy="-2" rx="6" ry="4" fill="#42344A"/></g></g><g transform="translate(540,812) scale(1.4)"><path d="M0,0 q-6,-30 4,-54" stroke="#4F9460" stroke-width="3.5" fill="none" stroke-linecap="round"/><path d="M0,-18 q-18,-6 -24,-22 q14,2 24,16" fill="#82B862"/><g transform="translate(4,-60) rotate(8)"><path d="M-20,0 q-4,-22 14,-24 q-2,14 6,24 z" fill="#F08A2C"/><path d="M20,0 q4,-22 -14,-24 q2,14 -6,24 z" fill="#E8743B"/><path d="M-14,2 q14,-30 28,0 q-14,12 -28,0 z" fill="#D9483B"/><ellipse cx="0" cy="-2" rx="6" ry="4" fill="#42344A"/></g></g><g transform="translate(595,812) scale(1)"><path d="M0,0 q-6,-30 4,-54" stroke="#4F9460" stroke-width="3.5" fill="none" stroke-linecap="round"/><path d="M0,-18 q-18,-6 -24,-22 q14,2 24,16" fill="#82B862"/><g transform="translate(4,-60) rotate(-10)"><path d="M-20,0 q-4,-22 14,-24 q-2,14 6,24 z" fill="#F08A2C"/><path d="M20,0 q4,-22 -14,-24 q2,14 -6,24 z" fill="#E8743B"/><path d="M-14,2 q14,-30 28,0 q-14,12 -28,0 z" fill="#D9483B"/><ellipse cx="0" cy="-2" rx="6" ry="4" fill="#42344A"/></g></g></svg>
