<svg xmlns="http://www.w3.org/2000/svg" viewBox="0 0 600 800"><style>@keyframes drift{from{transform:translateX(-30px)}to{transform:translateX(30px)}}.drift{animation:drift 24s ease-in-out infinite alternate}.drift.slow{animation-duration:38s}@media (prefers-reduced-motion:reduce){.drift{animation:none}}</style><defs><linearGradient id="cr-sky" x1="0" y1="0" x2="0" y2="1"><stop offset="0" stop-color="#F6E7CB"/><stop offset="0.5" stop-color="#FBEBD6"/><stop offset="1" stop-color="#FBF4E4"/></linearGradient></defs><rect width="600" height="800" fill="url(#cr-sky)"/><circle cx="271.4" cy="197.9" r="8.5" fill="#E9A88A"/><circle cx="271.1" cy="286.5" r="4.1" fill="#E9A88A"/><circle cx="377.9" cy="267.9" r="3.6" fill="#E9A88A"/><circle cx="85.1" cy="191.6" r="8.3" fill="#F2C3A7"/><circle cx="357.3" cy="148.8" r="5.7" fill="#F2C3A7"/><circle cx="373.9" cy="279.5" r="3.4" fill="#F2C3A7"/><circle cx="114.1" cy="102.6" r="3.2" fill="#E9A88A"/><circle cx="195.8" cy="207.3" r="4.2" fill="#F2C3A7"/><circle cx="384.2" cy="179.9" r="7" fill="#E9A88A"/><circle cx="392.9" cy="152" r="6.3" fill="#F2C3A7"/><g fill="#F2C3A7" class="drift"><circle cx="-70" cy="340" r="30.6"/><circle cx="-34" cy="320.2" r="39.6"/><circle cx="12.8" cy="332.8" r="32.4"/><circle cx="45.2" cy="345.4" r="23.4"/><circle cx="-97" cy="349" r="19.8"/><rect x="-116.8" y="343.6" width="185.4" height="25.2" rx="12.6"/></g><g fill="#F2C3A7" class="drift slow"><circle cx="470" cy="320" r="27.2"/><circle cx="502" cy="302.4" r="35.2"/><circle cx="543.6" cy="313.6" r="28.8"/><circle cx="572.4" cy="324.8" r="20.8"/><circle cx="446" cy="328" r="17.6"/><rect x="428.4" y="323.2" width="164.8" height="22.4" rx="11.2"/></g><g><path d="M80,360 q5.6,-5.6 11.2,0 q5.6,-5.6 11.2,0" fill="none" stroke="#42344A" stroke-width="2.4" stroke-linecap="round" stroke-linejoin="round"/><path d="M112,345.6 q4.5,-4.5 9,0 q4.5,-4.5 9,0" fill="none" stroke="#42344A" stroke-width="1.9" stroke-linecap="round" stroke-linejoin="round"/><path d="M136,366.4 q3.9,-3.9 7.8,0 q3.9,-3.9 7.8,0" fill="none" stroke="#42344A" stroke-width="1.7" stroke-linecap="round" stroke-linejoin="round"/></g><path d="M0,2000 L0,430 L8.2,428 L18.7,425.1 L31.1,421.6 L45,417.8 L60,413.8 L75.8,409.8 L92.1,406.3 L108.5,403.3 L124.6,401.1 L140,400 L155.2,400.2 L170.9,401.8 L186.8,404.2 L203,407.3 L219.4,410.6 L235.8,413.9 L252.1,416.8 L268.3,419 L284.3,420.2 L300,420 L315.4,418.1 L330.6,414.7 L345.7,410.2 L360.7,405 L375.6,399.4 L390.5,393.8 L405.3,388.7 L420.2,384.5 L435,381.4 L450,380 L465.7,380.3 L482.4,382 L499.7,384.8 L517.2,388.4 L534.4,392.5 L550.8,396.8 L566,401 L579.6,404.8 L591.1,407.9 L600,410 L600,2000 Z" fill="#B8B2DD"/><path d="M0,2000 L0,470 L10.7,468 L24.5,465.2 L40.8,461.8 L59,458 L78.8,454.1 L99.4,450.2 L120.3,446.6 L141.1,443.6 L161.2,441.3 L180,440 L197.7,439.9 L215,440.8 L232.1,442.5 L249.1,444.7 L266.2,447.2 L283.7,449.7 L301.6,452 L320.2,453.8 L339.6,454.9 L360,455 L382.7,454 L408,452.2 L435.1,449.7 L463.2,446.7 L491.2,443.4 L518.4,440.1 L543.8,436.9 L566.4,434 L585.4,431.7 L600,430 L600,2000 Z" fill="#A6CB72"/><rect x="60" y="438" width="46" height="32" fill="#E9D3AE"/><path d="M56.3,438 L83,418.7 L109.7,438 Z" fill="#C9573A"/><rect x="87.6" y="438" width="18.4" height="32" fill="#000" opacity=".06"/><rect x="69.2" y="447.6" width="8.3" height="9" fill="#5B4B66"/><rect x="140" y="446" width="46" height="32" fill="#F6E7CB"/><path d="M136.3,446 L163,426.7 L189.7,446 Z" fill="#C9573A"/><rect x="167.6" y="446" width="18.4" height="32" fill="#000" opacity=".06"/><rect x="149.2" y="455.6" width="8.3" height="9" fill="#5B4B66"/><rect x="220" y="438" width="46" height="32" fill="#E9D3AE"/><path d="M216.3,438 L243,418.7 L269.7,438 Z" fill="#C9573A"/><rect x="247.6" y="438" width="18.4" height="32" fill="#000" opacity=".06"/><rect x="229.2" y="447.6" width="8.3" height="9" fill="#5B4B66"/><rect x="300" y="446" width="46" height="32" fill="#F6E7CB"/><path d="M296.3,446 L323,426.7 L349.7,446 Z" fill="#C9573A"/><rect x="327.6" y="446" width="18.4" height="32" fill="#000" opacity=".06"/><rect x="309.2" y="455.6" width="8.3" height="9" fill="#5B4B66"/><rect x="380" y="438" width="46" height="32" fill="#E9D3AE"/><path d="M376.3,438 L403,418.7 L429.7,438 Z" fill="#C9573A"/><rect x="407.6" y="438" width="18.4" height="32" fill="#000" opacity=".06"/><rect x="389.2" y="447.6" width="8.3" height="9" fill="#5B4B66"/><rect x="450" y="393" width="18.2" height="77" fill="#F6E7CB"/><path d="M447.9,393 L459.1,365 L470.3,393 Z" fill="#5B4B66"/><rect x="455.6" y="402.8" width="7" height="9.8" rx="3.5" fill="#5B4B66"/><rect x="250" y="440" width="350" height="250" fill="#F2D7B0"/><rect x="250" y="430" width="350" height="16" fill="#C9573A"/><path d="M280,690 v-110 a40,40 0 0 1 80,0 v110 z" fill="#5B4B66"/><path d="M288,690 v-104 a32,32 0 0 1 64,0 v104 z" fill="#3B3550"/><rect x="294" y="610" width="52" height="34" rx="4" fill="#EDB84E" opacity=".85"/><path d="M380,690 v-110 a40,40 0 0 1 80,0 v110 z" fill="#5B4B66"/><path d="M388,690 v-104 a32,32 0 0 1 64,0 v104 z" fill="#3B3550"/><rect x="394" y="610" width="52" height="34" rx="4" fill="#EDB84E" opacity=".85"/><path d="M480,690 v-110 a40,40 0 0 1 80,0 v110 z" fill="#5B4B66"/><path d="M488,690 v-104 a32,32 0 0 1 64,0 v104 z" fill="#3B3550"/><rect x="494" y="610" width="52" height="34" rx="4" fill="#EDB84E" opacity=".85"/><rect x="250" y="520" width="35" height="22" fill="#D9483B"/><rect x="285" y="520" width="35" height="22" fill="#FBF4E4"/><rect x="320" y="520" width="35" height="22" fill="#D9483B"/><rect x="355" y="520" width="35" height="22" fill="#FBF4E4"/><rect x="390" y="520" width="35" height="22" fill="#D9483B"/><rect x="425" y="520" width="35" height="22" fill="#FBF4E4"/><rect x="460" y="520" width="35" height="22" fill="#D9483B"/><rect x="495" y="520" width="35" height="22" fill="#FBF4E4"/><rect x="530" y="520" width="35" height="22" fill="#D9483B"/><rect x="565" y="520" width="35" height="22" fill="#FBF4E4"/><circle cx="267.5" cy="542" r="17.5" fill="#D9483B"/><circle cx="302.5" cy="542" r="17.5" fill="#FBF4E4"/><circle cx="337.5" cy="542" r="17.5" fill="#D9483B"/><circle cx="372.5" cy="542" r="17.5" fill="#FBF4E4"/><circle cx="407.5" cy="542" r="17.5" fill="#D9483B"/><circle cx="442.5" cy="542" r="17.5" fill="#FBF4E4"/><circle cx="477.5" cy="542" r="17.5" fill="#D9483B"/><circle cx="512.5" cy="542" r="17.5" fill="#FBF4E4"/><circle cx="547.5" cy="542" r="17.5" fill="#D9483B"/><circle cx="582.5" cy="542" r="17.5" fill="#FBF4E4"/><rect x="330" y="470" width="190" height="34" rx="6" fill="#42344A"/><circle cx="372" cy="487" r="9" fill="#FBF4E4"/><rect x="390" y="482" width="110" height="10" rx="5" fill="#FBF4E4"/><path d="M0,380 Q150,440 300,410 T600,420" fill="none" stroke="#42344A" stroke-width="2"/><circle cx="50" cy="406" r="6" fill="#EDB84E"/><circle cx="100" cy="420.6" r="6" fill="#EDB84E"/><circle cx="150" cy="426" r="6" fill="#EDB84E"/><circle cx="200" cy="420.6" r="6" fill="#EDB84E"/><circle cx="250" cy="406" r="6" fill="#EDB84E"/><circle cx="300" cy="406" r="6" fill="#EDB84E"/><circle cx="350" cy="398" r="6" fill="#EDB84E"/><circle cx="400" cy="392.1" r="6" fill="#EDB84E"/><circle cx="450" cy="390" r="6" fill="#EDB84E"/><circle cx="500" cy="392.1" r="6" fill="#EDB84E"/><circle cx="550" cy="398" r="6" fill="#EDB84E"/><path d="M200,440 C133.4,557 150.1,700 200,700 Z" fill="#5B4B66"/><path d="M200,440 C266.6,557 249.9,700 200,700 Z" fill="#7A6788"/><path d="M150,520 C103.9,601 115.4,700 150,700 Z" fill="#5B4B66"/><path d="M150,520 C196.1,601 184.6,700 150,700 Z" fill="#7A6788"/><rect x="0" y="690" width="600" height="110" fill="#E9C9A0"/><path d="M-300,800 L60,690" stroke="#DDB98C" stroke-width="3"/><path d="M-180,800 L120,690" stroke="#DDB98C" stroke-width="3"/><path d="M-60,800 L180,690" stroke="#DDB98C" stroke-width="3"/><path d="M60,800 L240,690" stroke="#DDB98C" stroke-width="3"/><path d="M180,800 L300,690" stroke="#DDB98C" stroke-width="3"/><path d="M300,800 L360,690" stroke="#DDB98C" stroke-width="3"/><path d="M420,800 L420,690" stroke="#DDB98C" stroke-width="3"/><path d="M540,800 L480,690" stroke="#DDB98C" stroke-width="3"/><path d="M660,800 L540,690" stroke="#DDB98C" stroke-width="3"/><rect x="107" y="560" width="6" height="190" fill="#42344A"/><path d="M20,600 Q110,530 200,600 Z" fill="#E8743B"/><path d="M80,600 Q110,585 140,600 Z" fill="#FBF4E4"/><ellipse cx="110" cy="720" rx="64" ry="14" fill="#FBF4E4"/><rect x="106" y="720" width="8" height="60" fill="#5B4B66"/><path d="M84,700 h12 l-2,14 h-8 z M124,700 h12 l-2,14 h-8 z" fill="#D9483B" opacity=".85"/><rect x="89" y="714" width="2" height="8" fill="#42344A"/><rect x="129" y="714" width="2" height="8" fill="#42344A"/><rect x="417" y="560" width="6" height="190" fill="#42344A"/><path d="M330,600 Q420,530 510,600 Z" fill="#D9483B"/><path d="M390,600 Q420,585 450,600 Z" fill="#FBF4E4"/><ellipse cx="420" cy="720" rx="64" ry="14" fill="#FBF4E4"/><rect x="416" y="720" width="8" height="60" fill="#5B4B66"/><path d="M394,700 h12 l-2,14 h-8 z M434,700 h12 l-2,14 h-8 z" fill="#D9483B" opacity=".85"/><rect x="399" y="714" width="2" height="8" fill="#42344A"/><rect x="439" y="714" width="2" height="8" fill="#42344A"/><path d="M520,800 l10,-70 h50 l10,70 z" fill="#C9573A"/><circle cx="545" cy="716" r="28" fill="#4F9460"/><circle cx="572" cy="704" r="22" fill="#82B862"/></svg>
