<svg xmlns="http://www.w3.org/2000/svg" viewBox="0 0 600 800" preserveAspectRatio="xMidYMax slice"><style>@keyframes drift{from{transform:translateX(-26px)}to{transform:translateX(26px)}}.drift{animation:drift 26s ease-in-out infinite alternate}.drift.slow{animation-duration:40s}@keyframes fly{from{transform:translate(0,0)}to{transform:translate(-160px,-24px)}}.fly{animation:fly 30s linear infinite alternate}@media (prefers-reduced-motion:reduce){.drift,.fly{animation:none}}</style><defs><linearGradient id="co0g1" x1="0" y1="0" x2="0" y2="1"><stop offset="0" stop-color="#F4DFC0"/><stop offset="0.5" stop-color="#FAE9D2"/><stop offset="1" stop-color="#FBF4E4"/></linearGradient><radialGradient id="co0r2"><stop offset="0" stop-color="#FFF3DC" stop-opacity="0.85"/><stop offset="0.35" stop-color="#FFF3DC" stop-opacity="0.35"/><stop offset="1" stop-color="#FFF3DC" stop-opacity="0"/></radialGradient><clipPath id="co0k3"><circle cx="-70" cy="340" r="30.6"/><circle cx="-34" cy="318.4" r="41.4"/><circle cx="14.6" cy="331" r="34.2"/><circle cx="48.8" cy="345.4" r="23.4"/><circle cx="-98.8" cy="349" r="19.8"/><circle cx="-10.6" cy="347.2" r="27"/><rect x="-118.6" y="343.6" width="190.8" height="27" rx="13.5"/></clipPath><clipPath id="co0k4"><circle cx="470" cy="320" r="27.2"/><circle cx="502" cy="300.8" r="36.8"/><circle cx="545.2" cy="312" r="30.4"/><circle cx="575.6" cy="324.8" r="20.8"/><circle cx="444.4" cy="328" r="17.6"/><circle cx="522.8" cy="326.4" r="24"/><rect x="426.8" y="323.2" width="169.6" height="24" rx="12"/></clipPath></defs><rect width="600" height="800" fill="url(#co0g1)"/><circle cx="470" cy="300" r="121.6" fill="url(#co0r2)"/><circle cx="470" cy="300" r="38" fill="#FFF6E6"/><circle cx="271.4" cy="197.9" r="7.6" fill="#E9A88A"/><circle cx="271.1" cy="286.5" r="3.9" fill="#E9A88A"/><circle cx="377.9" cy="267.9" r="3.5" fill="#E9A88A"/><circle cx="85.1" cy="191.6" r="7.5" fill="#F2C3A7"/><circle cx="357.3" cy="148.8" r="5.3" fill="#F2C3A7"/><circle cx="373.9" cy="279.5" r="3.3" fill="#F2C3A7"/><circle cx="114.1" cy="102.6" r="3.2" fill="#E9A88A"/><circle cx="195.8" cy="207.3" r="4" fill="#F2C3A7"/><circle cx="384.2" cy="179.9" r="6.3" fill="#E9A88A"/><circle cx="392.9" cy="152" r="5.8" fill="#F2C3A7"/><g class="drift"><g fill="#F2C3A7"><circle cx="-70" cy="340" r="30.6"/><circle cx="-34" cy="318.4" r="41.4"/><circle cx="14.6" cy="331" r="34.2"/><circle cx="48.8" cy="345.4" r="23.4"/><circle cx="-98.8" cy="349" r="19.8"/><circle cx="-10.6" cy="347.2" r="27"/><rect x="-118.6" y="343.6" width="190.8" height="27" rx="13.5"/></g><g clip-path="url(#co0k3)"><path d="M-124,352.6 q63,-10.8 126,-3.6 t81,5.4 V376 H-124 Z" fill="#DDA088"/><circle cx="-43" cy="313" r="14.4" fill="#FFFFFF" opacity=".45"/></g></g><g class="drift slow"><g fill="#F2C3A7"><circle cx="470" cy="320" r="27.2"/><circle cx="502" cy="300.8" r="36.8"/><circle cx="545.2" cy="312" r="30.4"/><circle cx="575.6" cy="324.8" r="20.8"/><circle cx="444.4" cy="328" r="17.6"/><circle cx="522.8" cy="326.4" r="24"/><rect x="426.8" y="323.2" width="169.6" height="24" rx="12"/></g><g clip-path="url(#co0k4)"><path d="M422,331.2 q56,-9.6 112,-3.2 t72,4.8 V352 H422 Z" fill="#DDA088"/><circle cx="494" cy="296" r="12.8" fill="#FFFFFF" opacity=".45"/></g></g><g class="fly"><path d="M70,370 q5.6,-6.3 11.2,-0.7 q4.9,-6.3 11.9,-2.1 q-6.3,1.4 -11.9,5.6 q-4.9,-4.2 -11.2,-2.8 z" fill="#42344A"/><path d="M102.2,356 q4.5,-5 9,-0.6 q3.9,-5 9.5,-1.7 q-5,1.1 -9.5,4.5 q-3.9,-3.4 -9,-2.2 z" fill="#42344A"/><path d="M126,374.2 q3.6,-4.1 7.3,-0.5 q3.2,-4.1 7.7,-1.4 q-4.1,0.9 -7.7,3.6 q-3.2,-2.7 -7.3,-1.8 z" fill="#42344A"/></g></svg>
