<svg xmlns="http://www.w3.org/2000/svg" viewBox="0 170 600 270"><ellipse cx="300" cy="420" rx="240" ry="18" fill="#42344A" opacity=".08"/><rect x="48" y="250" width="6" height="150" rx="3" fill="#5B4B66"/><rect x="102" y="250" width="6" height="150" rx="3" fill="#5B4B66"/><rect x="40" y="242" width="76" height="46" rx="12" fill="#42344A"/><rect x="50" y="254" width="56" height="5" rx="2.5" fill="#7A6788"/><rect x="50" y="268" width="56" height="5" rx="2.5" fill="#7A6788"/><rect x="34" y="326" width="88" height="14" rx="5" fill="#42344A"/><rect x="38" y="338" width="7" height="74" rx="3" fill="#42344A"/><rect x="111" y="338" width="7" height="74" rx="3" fill="#42344A"/><rect x="492" y="250" width="6" height="150" rx="3" fill="#5B4B66"/><rect x="546" y="250" width="6" height="150" rx="3" fill="#5B4B66"/><rect x="484" y="242" width="76" height="46" rx="12" fill="#42344A"/><rect x="494" y="254" width="56" height="5" rx="2.5" fill="#7A6788"/><rect x="494" y="268" width="56" height="5" rx="2.5" fill="#7A6788"/><rect x="478" y="326" width="88" height="14" rx="5" fill="#42344A"/><rect x="482" y="338" width="7" height="74" rx="3" fill="#42344A"/><rect x="555" y="338" width="7" height="74" rx="3" fill="#42344A"/><rect x="290" y="300" width="20" height="120" fill="#5B4B66"/><ellipse cx="300" cy="420" rx="60" ry="10" fill="#5B4B66"/><ellipse cx="300" cy="306" rx="170" ry="34" fill="#E2C9A6"/><ellipse cx="300" cy="298" rx="170" ry="32" fill="#FBF4E4"/><g transform="translate(222,196)"><path d="M-6,104 h168 l-10,14 h-148 z" fill="#5B4B66"/><rect width="156" height="104" rx="8" fill="#42344A"/><rect x="8" y="8" width="140" height="88" rx="4" fill="#FFFFFF"/><rect x="8" y="8" width="140" height="12" rx="4" fill="#F6E7CB"/><circle cx="16" cy="14" r="2.5" fill="#D9483B"/><circle cx="24" cy="14" r="2.5" fill="#EDB84E"/><circle cx="32" cy="14" r="2.5" fill="#82B862"/><rect x="12" y="24" width="132" height="34" rx="3" fill="#F6E7CB"/><rect x="104" y="28" width="36" height="26" rx="3" fill="#F2C3A7"/><rect x="18" y="30" width="44" height="6" rx="3" fill="#42344A"/><rect x="18" y="40" width="22" height="7" rx="3.5" fill="#D9483B"/><rect x="12" y="64" width="40" height="26" rx="3" fill="#F2C3A7"/><rect x="58" y="64" width="40" height="26" rx="3" fill="#D3E28F"/><rect x="104" y="64" width="40" height="26" rx="3" fill="none" stroke="#7A6788" stroke-width="1.5" stroke-dasharray="4 3"/></g><ellipse cx="178" cy="300" rx="22" ry="6" fill="#E9D3AE"/><path d="M164,274 h28 v14 a14,12 0 0 1 -28,0 z" fill="#D9483B"/><path d="M192,278 a7,7 0 0 1 0,12" fill="none" stroke="#D9483B" stroke-width="4"/><path d="M174,262 q-6,-8 0,-16 M183,262 q-6,-8 0,-16" fill="none" stroke="#7A6788" stroke-width="3" stroke-linecap="round" opacity=".5"/><ellipse cx="432" cy="300" rx="22" ry="6" fill="#E9D3AE"/><path d="M418,274 h28 v14 a14,12 0 0 1 -28,0 z" fill="#5E8FD6"/><path d="M446,278 a7,7 0 0 1 0,12" fill="none" stroke="#5E8FD6" stroke-width="4"/><path d="M428,262 q-6,-8 0,-16 M437,262 q-6,-8 0,-16" fill="none" stroke="#7A6788" stroke-width="3" stroke-linecap="round" opacity=".5"/></svg>
