<svg xmlns="http://www.w3.org/2000/svg" viewBox="0 0 320 220"><rect width="320" height="220" rx="10" fill="#E6E6E6"/><rect x="0" y="0" width="320" height="22" rx="10" fill="#BDBDBD"/><rect x="0" y="12" width="320" height="10" fill="#BDBDBD"/><circle cx="12" cy="11" r="4" fill="#9E9E9E"/><circle cx="24" cy="11" r="4" fill="#9E9E9E"/><circle cx="36" cy="11" r="4" fill="#9E9E9E"/><rect x="50" y="5" width="220" height="12" rx="2" fill="#F5F5F5"/><rect x="6" y="28" width="308" height="186" fill="#F8F3D9"/><rect x="70" y="30" width="180" height="182" fill="#FFFFFF" stroke="#999" stroke-width="1"/><rect x="80" y="36" width="160" height="26" fill="#2E7D32"/><rect x="88" y="44" width="90" height="10" fill="#FFF59D"/><rect x="80" y="66" width="37" height="12" fill="#C8E6C9" stroke="#2E7D32" stroke-width="1"/><rect x="121" y="66" width="37" height="12" fill="#C8E6C9" stroke="#2E7D32" stroke-width="1"/><rect x="162" y="66" width="37" height="12" fill="#C8E6C9" stroke="#2E7D32" stroke-width="1"/><rect x="203" y="66" width="37" height="12" fill="#C8E6C9" stroke="#2E7D32" stroke-width="1"/><rect x="82" y="86" width="156" height="3" fill="#6D6D6D"/><rect x="82" y="94" width="143" height="3" fill="#6D6D6D"/><rect x="82" y="102" width="130" height="3" fill="#6D6D6D"/><rect x="82" y="110" width="147" height="3" fill="#6D6D6D"/><rect x="82" y="118" width="134" height="3" fill="#6D6D6D"/><rect x="82" y="126" width="151" height="3" fill="#6D6D6D"/><rect x="82" y="134" width="138" height="3" fill="#6D6D6D"/><rect x="82" y="142" width="155" height="3" fill="#6D6D6D"/><rect x="82" y="150" width="142" height="3" fill="#6D6D6D"/><rect x="82" y="158" width="129" height="3" fill="#6D6D6D"/><rect x="82" y="166" width="146" height="3" fill="#6D6D6D"/><rect x="82" y="174" width="133" height="3" fill="#6D6D6D"/><rect x="80" y="186" width="70" height="18" fill="#E0E0E0" stroke="#777" stroke-width="1.5"/><rect x="90" y="193" width="50" height="4" fill="#555"/><rect x="12" y="40" width="50" height="150" fill="#FFCC80"/><rect x="16" y="46" width="42" height="3" fill="#8D6E63"/><rect x="16" y="55" width="29" height="3" fill="#8D6E63"/><rect x="16" y="64" width="16" height="3" fill="#8D6E63"/><rect x="16" y="73" width="33" height="3" fill="#8D6E63"/><rect x="16" y="82" width="20" height="3" fill="#8D6E63"/><rect x="16" y="91" width="37" height="3" fill="#8D6E63"/><rect x="16" y="100" width="24" height="3" fill="#8D6E63"/><rect x="16" y="109" width="41" height="3" fill="#8D6E63"/><rect x="16" y="118" width="28" height="3" fill="#8D6E63"/><rect x="16" y="127" width="15" height="3" fill="#8D6E63"/><rect x="16" y="136" width="32" height="3" fill="#8D6E63"/><rect x="16" y="145" width="19" height="3" fill="#8D6E63"/><rect x="16" y="154" width="36" height="3" fill="#8D6E63"/><rect x="16" y="163" width="23" height="3" fill="#8D6E63"/><rect x="16" y="172" width="40" height="3" fill="#8D6E63"/><rect x="258" y="40" width="50" height="150" fill="#B3E5FC"/><rect x="262" y="46" width="42" height="3" fill="#0277BD"/><rect x="262" y="55" width="29" height="3" fill="#0277BD"/><rect x="262" y="64" width="16" height="3" fill="#0277BD"/><rect x="262" y="73" width="33" height="3" fill="#0277BD"/><rect x="262" y="82" width="20" height="3" fill="#0277BD"/><rect x="262" y="91" width="37" height="3" fill="#0277BD"/><rect x="262" y="100" width="24" height="3" fill="#0277BD"/><rect x="262" y="109" width="41" height="3" fill="#0277BD"/><rect x="262" y="118" width="28" height="3" fill="#0277BD"/><rect x="262" y="127" width="15" height="3" fill="#0277BD"/><rect x="262" y="136" width="32" height="3" fill="#0277BD"/><rect x="262" y="145" width="19" height="3" fill="#0277BD"/><rect x="262" y="154" width="36" height="3" fill="#0277BD"/><rect x="262" y="163" width="23" height="3" fill="#0277BD"/><rect x="262" y="172" width="40" height="3" fill="#0277BD"/></svg>
